<?xml version="1.0" encoding="UTF-8"?><svg id="Layer_1" xmlns="http://www.w3.org/2000/svg" width="120.08" height="372" viewBox="0 0 120.08 372"><defs><style>.cls-1{fill:#020c1c;stroke-width:0px;}.cls-2{fill:none;stroke:#020c1c;stroke-miterlimit:10;}</style></defs><path class="cls-1" d="M73.97,81.3l3.46,2.88h18.29s1.44-2.09,1.44-2.09h2.52s3.6,9.72,3.6,9.72v17.57h-19.95v-6.91s2.88-3.46,2.88-3.46h12.17s0-2.81,0-2.81l-.72-1.66h-19.37s0,12.39,0,12.39l-2.09.29-4.32-3.6v-9.07s-14.33,0-14.33,0l-2.16,2.88h-2.52v-16.06h2.52s2.16,2.81,2.16,2.81h14.33s0-2.59,0-2.59c0,0,2.09-.29,2.09-.29Z"/><path class="cls-1" d="M85.56,113.41l1.15-1.08h2.23s3.67,9.94,3.67,9.94v5.83s-3.67,9.94-3.67,9.94h-2.23s-1.15-1.08-1.15-1.08h-26.21s-1.08,1.08-1.08,1.08h-2.3s-3.67-9.94-3.67-9.94v-5.83s3.67-9.94,3.67-9.94h2.3s1.08,1.08,1.08,1.08h26.21ZM57.69,122.91l-1.01,1.73v1.08s1.01,1.73,1.01,1.73h29.52s1.01-1.73,1.01-1.73v-1.08s-1.01-1.73-1.01-1.73h-29.52Z"/><path class="cls-1" d="M85.56,141.99l1.15-1.08h2.23s3.67,9.94,3.67,9.94v5.83s-3.67,9.94-3.67,9.94h-2.23s-1.15-1.08-1.15-1.08h-26.21s-1.08,1.08-1.08,1.08h-2.3s-3.67-9.94-3.67-9.94v-5.83s3.67-9.94,3.67-9.94h2.3s1.08,1.08,1.08,1.08h26.21ZM57.69,151.49l-1.01,1.73v1.08s1.01,1.73,1.01,1.73h29.52s1.01-1.73,1.01-1.73v-1.08s-1.01-1.73-1.01-1.73h-29.52Z"/><path class="cls-1" d="M73.97,183.25l3.46,2.88h18.29s1.44-2.09,1.44-2.09h2.52s3.6,9.72,3.6,9.72v17.57h-19.95v-6.91s2.88-3.46,2.88-3.46h12.17s0-2.81,0-2.81l-.72-1.66h-19.37s0,12.39,0,12.39l-2.09.29-4.32-3.6v-9.07s-14.33,0-14.33,0l-2.16,2.88h-2.52v-16.06h2.52s2.16,2.81,2.16,2.81h14.33s0-2.59,0-2.59l2.09-.29h0Z"/><path class="cls-1" d="M73.39,213.2l2.52,2.16h9.65s1.15-1.08,1.15-1.08h2.23s3.67,9.94,3.67,9.94v5.83s-3.67,9.94-3.67,9.94h-2.23s-1.15-1.08-1.15-1.08h-8.5s-2.09.43-2.09.43l-3.67-3.1v-11.38s-13.61,0-13.61,0l-1.01,1.73v1.08s1.01,1.73,1.01,1.73h7.63s2.74,3.1,2.74,3.1v6.41h-8.71s-1.08,1.08-1.08,1.08h-2.3s-3.67-9.94-3.67-9.94v-5.83s3.67-9.94,3.67-9.94h2.3s1.08,1.08,1.08,1.08h11.95s0-1.73,0-1.73l2.09-.43ZM77.06,224.87v3.74s.86.79.86.79h9.29s1.01-1.73,1.01-1.73v-1.08s-1.01-1.73-1.01-1.73h-10.15s0,0,0,0Z"/><path class="cls-1" d="M88.23,256.25v-1.08s-1.01-1.73-1.01-1.73h-8.35s-4.25,15.27-4.25,15.27h-2.09s-.94-1.22-.94-1.22h-12.24s-1.08,1.08-1.08,1.08h-2.3s-3.67-9.94-3.67-9.94v-5.83s3.67-9.94,3.67-9.94h2.3s1.08,1.08,1.08,1.08h10.23v5.69s-2.74,3.82-2.74,3.82h-9.15s-1.01,1.73-1.01,1.73v1.08s1.01,1.73,1.01,1.73h12.31s4.25-15.27,4.25-15.27h2.09s.94,1.22.94,1.22h8.28s1.15-1.08,1.15-1.08h2.23s3.67,9.94,3.67,9.94v5.83s-3.67,9.94-3.67,9.94h-2.23s-1.15-1.08-1.15-1.08h-6.55v-5.69s2.74-3.82,2.74-3.82h5.47s1.01-1.73,1.01-1.73h0Z"/><path class="cls-1" d="M88.37,270.15l3.67,1.29v3.67s5.33,0,5.33,0l3.46,4.83v4.68h-8.78s0,4.54,0,4.54l-2.09.43-3.67-1.3v-3.67s-29.23,0-29.23,0l-1.87,2.16h-2.3v-13.83h2.3s1.87,2.16,1.87,2.16h29.23s0-4.54,0-4.54l2.09-.43h0Z"/><path class="cls-1" d="M27.18,83.65h9.12s1.2-1.74,1.2-1.74h2.1s3.6,9.72,3.6,9.72v5.04s-3.6,9.72-3.6,9.72h-2.1s-1.2-1.74-1.2-1.74h-6.06s-17.4-12.36-17.4-12.36H4.68s0,2.94,0,2.94l.6.78h6.12s4.98,3.54,4.98,3.54v5.1H.6v-23.34h2.1s1.8,2.34,1.8,2.34h10.02s17.4,12.36,17.4,12.36h6s.6-1.38.6-1.38v-.96s-.6-1.38-.6-1.38h-5.82s-4.92-3.54-4.92-3.54v-5.1s0,0,0,0Z"/><path class="cls-1" d="M36.3,144.97l1.2-1.74h2.1s3.6,9.72,3.6,9.72v5.04s-3.6,9.72-3.6,9.72h-2.1s-1.2-1.74-1.2-1.74H6.9s-1.2,1.74-1.2,1.74h-2.1s-3.6-9.72-3.6-9.72v-5.04s3.6-9.72,3.6-9.72h2.1s1.2,1.74,1.2,1.74h29.4ZM5.28,153.61l-.6,1.38v.96s.6,1.38.6,1.38h32.64s.6-1.38.6-1.38v-.96s-.6-1.38-.6-1.38H5.28Z"/><path class="cls-1" d="M27.18,206.89h9.12s1.2-1.74,1.2-1.74h2.1s3.6,9.72,3.6,9.72v5.04s-3.6,9.72-3.6,9.72h-2.1s-1.2-1.74-1.2-1.74h-6.06s-17.4-12.36-17.4-12.36H4.68s0,2.94,0,2.94l.6.78h6.12s4.98,3.54,4.98,3.54v5.1H.6v-23.34h2.1s1.8,2.34,1.8,2.34h10.02s17.4,12.36,17.4,12.36h6s.6-1.38.6-1.38v-.96s-.6-1.38-.6-1.38h-5.82s-4.92-3.54-4.92-3.54v-5.1s0,0,0,0Z"/><path class="cls-1" d="M19.14,277.27v3.3s19.62,0,19.62,0l3.84,5.16v3.48h-24.18s-2.88,2.4-2.88,2.4l-1.74-.24v-2.16s-9.3,0-9.3,0l-1.8,2.34H.6v-13.38h2.1s1.8,2.4,1.8,2.4h9.3s0-10.8,0-10.8l3.3-2.76h2.04s1.14,1.2,1.14,1.2h18.42s1.8-2.34,1.8-2.34h2.1v10.98h-23.04s-.42.42-.42.42h0Z"/><line class="cls-2" x1="47.58" y1="81" x2="47.58" y2="290"/><polygon class="cls-1" points="51.6 0 120.08 63.33 85.84 74 .75 74 77.08 63.33 83.08 51.33 73.08 46.33 79.08 40.33 67.08 32.33 73.08 28.33 62.58 22.67 51.6 0"/><polygon class="cls-1" points="51.6 372 120.08 308.67 85.84 298 .75 298 77.08 308.67 83.08 320.67 73.08 325.67 79.08 331.67 67.08 339.67 73.08 343.67 62.58 349.33 51.6 372"/></svg>